<svg xmlns="http://www.w3.org/2000/svg" xmlns:xlink="http://www.w3.org/1999/xlink" viewBox="0 0 1385.99 1466.93"><defs><style>.cls-1{isolation:isolate;}.cls-2,.cls-22,.cls-24,.cls-27,.cls-28,.cls-40,.cls-49,.cls-59{opacity:0.5;}.cls-10,.cls-2,.cls-20,.cls-22,.cls-24,.cls-29,.cls-36,.cls-40,.cls-45,.cls-49,.cls-56,.cls-59,.cls-6{mix-blend-mode:multiply;}.cls-2{fill:url(#Áåçûìÿííûé_ãðàäèåíò_123);}.cls-3{fill:#e5f6ff;}.cls-4{fill:url(#Áåçûìÿííûé_ãðàäèåíò_46);}.cls-5{fill:url(#Áåçûìÿííûé_ãðàäèåíò_28);}.cls-10,.cls-20,.cls-29,.cls-36,.cls-45,.cls-56,.cls-6{opacity:0.3;}.cls-6{fill:url(#Áåçûìÿííûé_ãðàäèåíò_153);}.cls-7{fill:url(#Áåçûìÿííûé_ãðàäèåíò_46-2);}.cls-8{fill:url(#Áåçûìÿííûé_ãðàäèåíò_28-2);}.cls-9{fill:#fff;}.cls-10{fill:url(#Áåçûìÿííûé_ãðàäèåíò_153-2);}.cls-11{fill:url(#Áåçûìÿííûé_ãðàäèåíò_264);}.cls-12{fill:url(#Áåçûìÿííûé_ãðàäèåíò_28-3);}.cls-13{fill:url(#Áåçûìÿííûé_ãðàäèåíò_264-2);}.cls-14{fill:url(#Áåçûìÿííûé_ãðàäèåíò_28-4);}.cls-15{fill:url(#Áåçûìÿííûé_ãðàäèåíò_8);}.cls-16{fill:url(#Áåçûìÿííûé_ãðàäèåíò_8-2);}.cls-17{fill:url(#Áåçûìÿííûé_ãðàäèåíò_46-3);}.cls-18{fill:#dfe3fb;}.cls-19{fill:url(#Áåçûìÿííûé_ãðàäèåíò_132);}.cls-20{fill:url(#Áåçûìÿííûé_ãðàäèåíò_153-3);}.cls-21{fill:url(#Áåçûìÿííûé_ãðàäèåíò_36);}.cls-22{fill:url(#Áåçûìÿííûé_ãðàäèåíò_416);}.cls-23{fill:url(#Áåçûìÿííûé_ãðàäèåíò_73);}.cls-24{fill:url(#Áåçûìÿííûé_ãðàäèåíò_416-2);}.cls-25{fill:url(#Áåçûìÿííûé_ãðàäèåíò_28-5);}.cls-26{fill:url(#Áåçûìÿííûé_ãðàäèåíò_8-3);}.cls-27,.cls-28,.cls-31,.cls-32,.cls-33,.cls-60,.cls-61{mix-blend-mode:screen;}.cls-27{fill:url(#Áåçûìÿííûé_ãðàäèåíò_54);}.cls-28{fill:url(#Áåçûìÿííûé_ãðàäèåíò_54-2);}.cls-29{fill:url(#Áåçûìÿííûé_ãðàäèåíò_153-4);}.cls-30{fill:url(#Áåçûìÿííûé_ãðàäèåíò_65);}.cls-31{opacity:0.2;fill:url(#Áåçûìÿííûé_ãðàäèåíò_126);}.cls-32,.cls-33,.cls-60,.cls-61{opacity:0.72;}.cls-32{fill:url(#Áåçûìÿííûé_ãðàäèåíò_134);}.cls-33{fill:url(#Áåçûìÿííûé_ãðàäèåíò_143);}.cls-34{fill:url(#Áåçûìÿííûé_ãðàäèåíò_46-4);}.cls-35{fill:url(#Áåçûìÿííûé_ãðàäèåíò_46-5);}.cls-36{fill:url(#Áåçûìÿííûé_ãðàäèåíò_153-5);}.cls-37{fill:url(#Áåçûìÿííûé_ãðàäèåíò_28-6);}.cls-38{fill:url(#Áåçûìÿííûé_ãðàäèåíò_46-6);}.cls-39{fill:url(#Áåçûìÿííûé_ãðàäèåíò_28-7);}.cls-40{fill:url(#Áåçûìÿííûé_ãðàäèåíò_416-3);}.cls-41{fill:url(#Áåçûìÿííûé_ãðàäèåíò_46-7);}.cls-42{fill:url(#Áåçûìÿííûé_ãðàäèåíò_28-8);}.cls-43{fill:url(#Áåçûìÿííûé_ãðàäèåíò_36-2);}.cls-44{fill:url(#Áåçûìÿííûé_ãðàäèåíò_46-8);}.cls-45{fill:url(#Áåçûìÿííûé_ãðàäèåíò_153-6);}.cls-46{fill:url(#Áåçûìÿííûé_ãðàäèåíò_28-9);}.cls-47{fill:url(#Áåçûìÿííûé_ãðàäèåíò_46-9);}.cls-48{fill:url(#Áåçûìÿííûé_ãðàäèåíò_28-10);}.cls-49{fill:url(#Áåçûìÿííûé_ãðàäèåíò_416-4);}.cls-50{fill:url(#Áåçûìÿííûé_ãðàäèåíò_46-10);}.cls-51{fill:url(#Áåçûìÿííûé_ãðàäèåíò_28-11);}.cls-52{fill:url(#Áåçûìÿííûé_ãðàäèåíò_36-3);}.cls-53{fill:#2f95cd;}.cls-54{font-size:240.59px;fill:#ff008b;font-family:VietNamDigital01, "VietNam Digital 01";}.cls-55{fill:url(#Áåçûìÿííûé_ãðàäèåíò_46-11);}.cls-56{fill:url(#Áåçûìÿííûé_ãðàäèåíò_153-7);}.cls-57{fill:url(#Áåçûìÿííûé_ãðàäèåíò_28-12);}.cls-58{fill:url(#Áåçûìÿííûé_ãðàäèåíò_49);}.cls-59{fill:url(#Áåçûìÿííûé_ãðàäèåíò_416-5);}.cls-60{fill:url(#Áåçûìÿííûé_ãðàäèåíò_27);}.cls-61{fill:url(#Áåçûìÿííûé_ãðàäèåíò_39);}</style><radialGradient id="Áåçûìÿííûé_ãðàäèåíò_123" cx="720.82" cy="3294.33" r="296.63" gradientTransform="translate(-78.54 667.93) scale(1 0.22)" gradientUnits="userSpaceOnUse"><stop offset="0" stop-color="#be9dea"/><stop offset="0.39" stop-color="#e0bff5"/><stop offset="1" stop-color="#fff"/></radialGradient><linearGradient id="Áåçûìÿííûé_ãðàäèåíò_46" x1="721.46" y1="1303.79" x2="762.54" y2="976.68" gradientTransform="translate(-230.33 407.04) rotate(-22.2)" gradientUnits="userSpaceOnUse"><stop offset="0" stop-color="#cbc1f7"/><stop offset="1" stop-color="#e8dcf7"/></linearGradient><linearGradient id="Áåçûìÿííûé_ãðàäèåíò_28" x1="752.08" y1="1105.72" x2="752.08" y2="986.84" gradientTransform="translate(-230.33 407.04) rotate(-22.2)" gradientUnits="userSpaceOnUse"><stop offset="0" stop-color="#be9dea"/><stop offset="1" stop-color="#9e8cef"/></linearGradient><linearGradient id="Áåçûìÿííûé_ãðàäèåíò_153" x1="752.58" y1="1296.06" x2="752.58" y2="985.93" gradientTransform="translate(-230.33 407.04) rotate(-22.2)" gradientUnits="userSpaceOnUse"><stop offset="0" stop-color="#9d68c2"/><stop offset="1" stop-color="#ccedff"/></linearGradient><linearGradient id="Áåçûìÿííûé_ãðàäèåíò_46-2" x1="996" y1="1435.17" x2="1037.09" y2="1108.06" gradientTransform="matrix(-0.93, -0.38, -0.38, 0.93, 1951.74, 407.04)" xlink:href="#Áåçûìÿííûé_ãðàäèåíò_46"/><linearGradient id="Áåçûìÿííûé_ãðàäèåíò_28-2" x1="1026.62" y1="1237.11" x2="1026.62" y2="1118.23" gradientTransform="matrix(-0.93, -0.38, -0.38, 0.93, 1951.74, 407.04)" xlink:href="#Áåçûìÿííûé_ãðàäèåíò_28"/><linearGradient id="Áåçûìÿííûé_ãðàäèåíò_153-2" x1="1027.12" y1="1427.44" x2="1027.12" y2="1117.31" gradientTransform="matrix(-0.93, -0.38, -0.38, 0.93, 1951.74, 407.04)" xlink:href="#Áåçûìÿííûé_ãðàäèåíò_153"/><linearGradient id="Áåçûìÿííûé_ãðàäèåíò_264" x1="238.27" y1="369.16" x2="238.27" y2="116.98" gradientTransform="matrix(-1, 0, 0, 1, 677.46, 0)" gradientUnits="userSpaceOnUse"><stop offset="0" stop-color="#b9acf4"/><stop offset="1" stop-color="#e1d1f5"/></linearGradient><linearGradient id="Áåçûìÿííûé_ãðàäèåíò_28-3" x1="421.14" y1="273.89" x2="421.14" y2="116.98" gradientTransform="matrix(1, 0, 0, 1, 0, 0)" xlink:href="#Áåçûìÿííûé_ãðàäèåíò_28"/><linearGradient id="Áåçûìÿííûé_ãðàäèåíò_264-2" x1="959.35" y1="369.16" x2="959.35" y2="116.98" gradientTransform="matrix(1, 0, 0, 1, 0, 0)" xlink:href="#Áåçûìÿííûé_ãðàäèåíò_264"/><linearGradient id="Áåçûìÿííûé_ãðàäèåíò_28-4" x1="977.66" y1="254.05" x2="977.66" y2="116.96" gradientTransform="matrix(1, 0, 0, 1, 0, 0)" xlink:href="#Áåçûìÿííûé_ãðàäèåíò_28"/><linearGradient id="Áåçûìÿííûé_ãðàäèåíò_8" x1="1011.74" y1="381.23" x2="1011.74" y2="133.45" gradientUnits="userSpaceOnUse"><stop offset="0" stop-color="#dd1a8f"/><stop offset="1" stop-color="#fe117e"/></linearGradient><linearGradient id="Áåçûìÿííûé_ãðàäèåíò_8-2" x1="290.67" y1="381.23" x2="290.67" y2="133.45" gradientTransform="matrix(-1, 0, 0, 1, 677.46, 0)" xlink:href="#Áåçûìÿííûé_ãðàäèåíò_8"/><linearGradient id="Áåçûìÿííûé_ãðàäèåíò_46-3" x1="672.07" y1="726.84" x2="752.24" y2="88.51" gradientTransform="matrix(1, 0, 0, 1, 0, 0)" xlink:href="#Áåçûìÿííûé_ãðàäèåíò_46"/><linearGradient id="Áåçûìÿííûé_ãðàäèåíò_132" x1="698.23" y1="551.85" x2="698.23" y2="105.19" gradientUnits="userSpaceOnUse"><stop offset="0" stop-color="#0665bd"/><stop offset="1" stop-color="#1a1f77"/></linearGradient><linearGradient id="Áåçûìÿííûé_ãðàäèåíò_153-3" x1="700.42" y1="720.94" x2="700.42" y2="340.46" gradientTransform="matrix(1, 0, 0, 1, 0, 0)" xlink:href="#Áåçûìÿííûé_ãðàäèåíò_153"/><linearGradient id="Áåçûìÿííûé_ãðàäèåíò_36" x1="443.98" y1="671.48" x2="939.8" y2="671.48" gradientUnits="userSpaceOnUse"><stop offset="0" stop-color="#8879ea"/><stop offset="1" stop-color="#9e8cef"/></linearGradient><linearGradient id="Áåçûìÿííûé_ãðàäèåíò_416" x1="691.17" y1="693.58" x2="691.17" y2="622.11" gradientUnits="userSpaceOnUse"><stop offset="0" stop-color="#8da4e5"/><stop offset="1" stop-color="#755cbb"/></linearGradient><linearGradient id="Áåçûìÿííûé_ãðàäèåíò_73" x1="689.91" y1="683.46" x2="699.21" y2="609.37" gradientUnits="userSpaceOnUse"><stop offset="0" stop-color="#5e36cc"/><stop offset="1" stop-color="#6c4a96"/></linearGradient><linearGradient id="Áåçûìÿííûé_ãðàäèåíò_416-2" x1="438.06" y1="632.72" x2="438.06" y2="532.45" xlink:href="#Áåçûìÿííûé_ãðàäèåíò_416"/><linearGradient id="Áåçûìÿííûé_ãðàäèåíò_28-5" x1="301.94" y1="567.2" x2="338.68" y2="274.62" gradientTransform="matrix(1, 0, 0, 1, 0, 0)" xlink:href="#Áåçûìÿííûé_ãðàäèåíò_28"/><linearGradient id="Áåçûìÿííûé_ãðàäèåíò_8-3" x1="408.55" y1="557.58" x2="408.55" y2="475.1" gradientTransform="matrix(0.97, 0.23, -0.23, 0.97, 174.73, -67.45)" xlink:href="#Áåçûìÿííûé_ãðàäèåíò_8"/><linearGradient id="Áåçûìÿííûé_ãðàäèåíò_54" x1="481.36" y1="210.28" x2="938.29" y2="210.28" gradientUnits="userSpaceOnUse"><stop offset="0"/><stop offset="1" stop-color="#6a9bff"/></linearGradient><linearGradient id="Áåçûìÿííûé_ãðàäèåíò_54-2" x1="545.96" y1="514.71" x2="877.12" y2="514.71" xlink:href="#Áåçûìÿííûé_ãðàäèåíò_54"/><linearGradient id="Áåçûìÿííûé_ãðàäèåíò_153-4" x1="1017.33" y1="357.84" x2="1017.33" y2="347.53" gradientTransform="matrix(1, 0, 0, 1, 0, 0)" xlink:href="#Áåçûìÿííûé_ãðàäèåíò_153"/><linearGradient id="Áåçûìÿííûé_ãðàäèåíò_65" x1="449.72" y1="529" x2="449.72" y2="493.98" gradientUnits="userSpaceOnUse"><stop offset="0" stop-color="#d93de3"/><stop offset="1" stop-color="#ff6dba"/></linearGradient><linearGradient id="Áåçûìÿííûé_ãðàäèåíò_126" x1="419.74" y1="455.72" x2="419.74" y2="290.09" gradientTransform="translate(49.65 -23.92) rotate(3.92)" gradientUnits="userSpaceOnUse"><stop offset="0"/><stop offset="1" stop-color="#00e3ff"/></linearGradient><linearGradient id="Áåçûìÿííûé_ãðàäèåíò_134" x1="972.36" y1="195.44" x2="1036.82" y2="195.44" gradientUnits="userSpaceOnUse"><stop offset="0"/><stop offset="1" stop-color="#d4e2ff"/></linearGradient><linearGradient id="Áåçûìÿííûé_ãðàäèåíò_143" x1="353.95" y1="185.49" x2="425" y2="185.49" gradientUnits="userSpaceOnUse"><stop offset="0" stop-color="#d4e2ff"/><stop offset="1"/></linearGradient><linearGradient id="Áåçûìÿííûé_ãðàäèåíò_46-4" x1="290.56" y1="370.08" x2="290.56" y2="288.21" gradientTransform="matrix(1, 0.02, -0.02, 1, 11.71, -5.39)" xlink:href="#Áåçûìÿííûé_ãðàäèåíò_46"/><linearGradient id="Áåçûìÿííûé_ãðàäèåíò_46-5" x1="422.44" y1="1124.19" x2="477.35" y2="686.97" gradientTransform="translate(154.59 -145.46) rotate(10.82)" xlink:href="#Áåçûìÿííûé_ãðàäèåíò_46"/><linearGradient id="Áåçûìÿííûé_ãðàäèåíò_153-5" x1="444.87" y1="1115.89" x2="444.87" y2="748.51" gradientTransform="translate(154.59 -145.46) rotate(10.82)" xlink:href="#Áåçûìÿííûé_ãðàäèåíò_153"/><linearGradient id="Áåçûìÿííûé_ãðàäèåíò_28-6" x1="343.83" y1="1062.65" x2="334.34" y2="969.49" gradientTransform="translate(49.9 -53.1) rotate(3.72)" xlink:href="#Áåçûìÿííûé_ãðàäèåíò_28"/><linearGradient id="Áåçûìÿííûé_ãðàäèåíò_46-6" x1="674.69" y1="368.32" x2="703.82" y2="136.42" gradientTransform="matrix(0.59, 0.81, 0.81, -0.59, -328.1, 641.4)" xlink:href="#Áåçûìÿííûé_ãðàäèåíò_46"/><linearGradient id="Áåçûìÿííûé_ãðàäèåíò_28-7" x1="667.47" y1="309.68" x2="667.47" y2="138.37" gradientTransform="matrix(0.59, 0.81, 0.81, -0.59, -328.1, 641.4)" xlink:href="#Áåçûìÿííûé_ãðàäèåíò_28"/><linearGradient id="Áåçûìÿííûé_ãðàäèåíò_416-3" x1="662.02" y1="278.44" x2="662.02" y2="179.2" gradientTransform="matrix(0.59, 0.81, 0.81, -0.59, -328.1, 641.4)" xlink:href="#Áåçûìÿííûé_ãðàäèåíò_416"/><linearGradient id="Áåçûìÿííûé_ãðàäèåíò_46-7" x1="623.67" y1="299.71" x2="641.74" y2="155.81" gradientTransform="matrix(0.59, 0.81, 0.81, -0.59, -328.1, 641.4)" xlink:href="#Áåçûìÿííûé_ãðàäèåíò_46"/><linearGradient id="Áåçûìÿííûé_ãðàäèåíò_28-8" x1="698.78" y1="325.92" x2="698.78" y2="230.96" gradientTransform="matrix(0.59, 0.81, 0.81, -0.59, -328.1, 641.4)" xlink:href="#Áåçûìÿííûé_ãðàäèåíò_28"/><linearGradient id="Áåçûìÿííûé_ãðàäèåíò_36-2" x1="525.47" y1="747" x2="564.4" y2="747" gradientTransform="translate(49.9 -53.1) rotate(3.72)" xlink:href="#Áåçûìÿííûé_ãðàäèåíò_36"/><linearGradient id="Áåçûìÿííûé_ãðàäèåíò_46-8" x1="899.46" y1="1025.4" x2="954.38" y2="588.18" gradientTransform="matrix(-0.98, 0.19, 0.19, 0.98, 1731.04, -145.46)" xlink:href="#Áåçûìÿííûé_ãðàäèåíò_46"/><linearGradient id="Áåçûìÿííûé_ãðàäèåíò_153-6" x1="921.9" y1="1017.1" x2="921.9" y2="649.72" gradientTransform="matrix(-0.98, 0.19, 0.19, 0.98, 1731.04, -145.46)" xlink:href="#Áåçûìÿííûé_ãðàäèåíò_153"/><linearGradient id="Áåçûìÿííûé_ãðàäèåíò_28-9" x1="829.4" y1="1023.61" x2="819.91" y2="930.45" gradientTransform="matrix(-1, 0.06, 0.06, 1, 1835.73, -53.1)" xlink:href="#Áåçûìÿííûé_ãðàäèåíò_28"/><linearGradient id="Áåçûìÿííûé_ãðàäèåíò_46-9" x1="957.07" y1="765.3" x2="986.19" y2="533.4" gradientTransform="translate(2213.73 641.4) rotate(126.3)" xlink:href="#Áåçûìÿííûé_ãðàäèåíò_46"/><linearGradient id="Áåçûìÿííûé_ãðàäèåíò_28-10" x1="952.69" y1="722.79" x2="952.69" y2="535.34" gradientTransform="translate(2213.73 641.4) rotate(126.3)" xlink:href="#Áåçûìÿííûé_ãðàäèåíò_28"/><linearGradient id="Áåçûìÿííûé_ãðàäèåíò_416-4" x1="934.9" y1="722.79" x2="934.9" y2="576.18" gradientTransform="translate(2213.73 641.4) rotate(126.3)" xlink:href="#Áåçûìÿííûé_ãðàäèåíò_416"/><linearGradient id="Áåçûìÿííûé_ãðàäèåíò_46-10" x1="1069.28" y1="832.54" x2="1085.32" y2="704.83" gradientTransform="translate(1795.6 -188.39) rotate(83.25)" xlink:href="#Áåçûìÿííûé_ãðàäèåíò_46"/><linearGradient id="Áåçûìÿííûé_ãðàäèåíò_28-11" x1="981.16" y1="722.9" x2="981.16" y2="627.93" gradientTransform="translate(2213.73 641.4) rotate(126.3)" xlink:href="#Áåçûìÿííûé_ãðàäèåíò_28"/><linearGradient id="Áåçûìÿííûé_ãðàäèåíò_36-3" x1="1011.05" y1="707.96" x2="1049.98" y2="707.96" gradientTransform="matrix(-1, 0.06, 0.06, 1, 1835.73, -53.1)" xlink:href="#Áåçûìÿííûé_ãðàäèåíò_36"/><linearGradient id="Áåçûìÿííûé_ãðàäèåíò_46-11" x1="675.54" y1="1185.02" x2="745.19" y2="630.47" gradientTransform="matrix(1, 0, 0, 1, 0, 0)" xlink:href="#Áåçûìÿííûé_ãðàäèåíò_46"/><linearGradient id="Áåçûìÿííûé_ãðàäèåíò_153-7" x1="703.85" y1="1185.97" x2="703.85" y2="739.81" gradientTransform="matrix(1, 0, 0, 1, 0, 0)" xlink:href="#Áåçûìÿííûé_ãðàäèåíò_153"/><linearGradient id="Áåçûìÿííûé_ãðàäèåíò_28-12" x1="699.58" y1="1176.9" x2="699.58" y2="825.5" gradientTransform="matrix(1, 0, 0, 1, 0, 0)" xlink:href="#Áåçûìÿííûé_ãðàäèåíò_28"/><radialGradient id="Áåçûìÿííûé_ãðàäèåíò_49" cx="711.59" cy="1142.57" r="280.63" gradientUnits="userSpaceOnUse"><stop offset="0" stop-color="#ce40e0"/><stop offset="1" stop-color="#dd1a8f"/></radialGradient><linearGradient id="Áåçûìÿííûé_ãðàäèåíò_416-5" x1="696.15" y1="735.09" x2="696.15" y2="626.32" xlink:href="#Áåçûìÿííûé_ãðàäèåíò_416"/><linearGradient id="Áåçûìÿííûé_ãðàäèåíò_27" x1="557.37" y1="921.64" x2="862.94" y2="921.64" gradientUnits="userSpaceOnUse"><stop offset="0"/><stop offset="1" stop-color="#ff955c"/></linearGradient><linearGradient id="Áåçûìÿííûé_ãðàäèåíò_39" x1="710.16" y1="1169.93" x2="710.16" y2="1109.06" gradientUnits="userSpaceOnUse"><stop offset="0" stop-color="#ff4b90"/><stop offset="1"/></linearGradient></defs><title>404</title><g class="cls-1"><g id="Layer_1" data-name="Layer 1"><ellipse class="cls-2" cx="642.29" cy="1400.92" rx="296.61" ry="66"/><path class="cls-3" d="M196.19,1182.47c77.12,161.85,821.35,138.31,1008.86,12.61S1443.83.29,939.85,22.34C571.9,38.43-1.75,767.07,196.19,1182.47Z" transform="translate(-78.54 -22)"/><path class="cls-3" d="M1330.56,1080.39c-28.6-15,6-181.82,52.14-200.91s96,76.19,78.09,130S1380.19,1106.43,1330.56,1080.39Z" transform="translate(-78.54 -22)"/><path class="cls-3" d="M199.41,608.72c26.07,16.58-18,163.81-61.24,174.44S66.55,708.92,83.52,667,161.65,584.72,199.41,608.72Z" transform="translate(-78.54 -22)"/><path class="cls-4" d="M938.6,1062.28c1.27,4.53,2.5,9.28,3.79,14.19,19.42,74.89,42.26,187.17,36.52,233.74-1.33,11.16-4.35,18.54-9.41,20.74a12.75,12.75,0,0,1-4.35,1.06c-5.34.56-12-1.26-19.5-4.93l0,0c-46.86-23-127.88-117.73-142.5-149.9-1.82-4-2.61-7-2.17-8.82C809.13,1136,907.21,996.93,918.72,1004,921.77,1006,929.55,1029.13,938.6,1062.28Z" transform="translate(-78.54 -22)"/><path class="cls-5" d="M803.12,1177.1c0,11.6,131.26-68.58,115.59-173C918.71,1004.05,803,1067.85,803.12,1177.1Z" transform="translate(-78.54 -22)"/><path class="cls-6" d="M938.6,1062.28s-67.59,54.13-70.47,97.84,39.1,127.54,77.5,166.91c-46.86-23-127.88-117.73-142.5-149.9-1.82-4-2.61-7-2.17-8.82C809.13,1136,907.21,996.93,918.72,1004,921.77,1006,929.55,1029.13,938.6,1062.28Z" transform="translate(-78.54 -22)"/><path class="cls-7" d="M479,1080.2c-1.27,4.54-2.49,9.28-3.78,14.19-19.43,74.89-42.26,187.18-36.53,233.75,1.34,11.16,4.35,18.54,9.41,20.73a12.81,12.81,0,0,0,4.36,1.07c5.34.56,12-1.26,19.49-4.93l0-.06c46.87-23,127.88-117.72,142.5-149.89,1.82-4,2.61-7,2.18-8.83-8.17-32.34-106.26-171.37-117.77-164.28C495.81,1023.88,488,1047.06,479,1080.2Z" transform="translate(-78.54 -22)"/><path class="cls-8" d="M614.46,1195c0,11.6-131.26-68.58-115.58-173.06C498.88,1022,614.59,1085.78,614.46,1195Z" transform="translate(-78.54 -22)"/><path class="cls-9" d="M523.85,1196.66c5,4.11-12.34,50.44-22.94,49.07S512.25,1187.16,523.85,1196.66Z" transform="translate(-78.54 -22)"/><path class="cls-9" d="M917.66,1264.31c6.47-.49,20.93,26.47,12.32,32.8S902.71,1265.44,917.66,1264.31Z" transform="translate(-78.54 -22)"/><path class="cls-10" d="M479,1080.2s67.59,54.13,70.47,97.85S510.36,1305.59,472,1345c46.87-23,127.88-117.72,142.5-149.89,1.82-4,2.61-7,2.18-8.83-8.17-32.34-106.26-171.37-117.77-164.28C495.81,1023.88,488,1047.06,479,1080.2Z" transform="translate(-78.54 -22)"/><path class="cls-11" d="M511.06,163S465.57,123.8,409.91,117c0,0-17.05,8.33-36.74,69.67s16.66,182.51,16.66,182.51Z" transform="translate(-78.54 -22)"/><path class="cls-12" d="M388.32,147.56s8.93-20.73,21.59-30.58c0,0,45.79,42.27,44,143.25l-13.21,13.66Z" transform="translate(-78.54 -22)"/><path class="cls-13" d="M887.48,163S933,123.8,988.63,117c0,0,17,8.33,36.74,69.67s-16.66,182.51-16.66,182.51Z" transform="translate(-78.54 -22)"/><path class="cls-14" d="M988.63,117s-45,48.28-45,126.09l17.42,11,50.74-105S994.9,116.06,988.63,117Z" transform="translate(-78.54 -22)"/><path class="cls-15" d="M959.35,248.75s-12-66.45,31.75-115.3c0,0,49.41,23.29,69.86,109.62s-32.78,138.16-32.78,138.16Z" transform="translate(-78.54 -22)"/><path class="cls-16" d="M439.19,248.75s12-66.45-31.75-115.3c0,0-49.42,23.29-69.86,109.62s32.77,138.16,32.77,138.16Z" transform="translate(-78.54 -22)"/><path class="cls-17" d="M1020.06,616.06c-101.5,142.32-578.54,131.77-640.65,16.66-40.52-75.18-36.09-188.18,2.94-292.2,51.2-136.51,162-257.61,309-257.61,173,0,305.94,172.36,346,329.79C1057.65,492.38,1054.17,568.22,1020.06,616.06Z" transform="translate(-78.54 -22)"/><path class="cls-18" d="M415,484.05C437.73,581,857,591.53,960,503.69S914.71,103.77,687.52,117.4C479.73,129.86,377.8,325.28,415,484.05Z" transform="translate(-78.54 -22)"/><path class="cls-19" d="M412.83,472.27c22.72,96.94,442,107.49,545,19.65S912.53,92,685.34,105.62C477.55,118.09,375.62,313.5,412.83,472.27Z" transform="translate(-78.54 -22)"/><path class="cls-20" d="M1020.06,616.06c-101.5,142.32-578.54,131.77-640.65,16.66-40.52-75.18-36.09-188.18,2.94-292.2a.06.06,0,0,1,.06-.06c-1.68,6.11-41.67,151.92-.84,216.07C423.3,622.11,588.41,613,765.62,605.45s235.85-33.34,265.59-83.34c23.44-39.33-.12-126.14-11.21-161.27l17.38,51.86C1057.65,492.38,1054.17,568.22,1020.06,616.06Z" transform="translate(-78.54 -22)"/><path class="cls-21" d="M691.94,720.85c-99.16-.12-170.62-11.27-210.61-27.27h-.06c-26.26-10.5-39-23-37.11-35.92,1.14-7.85,20.62-14.74,51.26-20.38,90.05-16.31,276.44-21.22,376.86-6,8.63,1.32,16.66,2.76,23.92,4.38,1.56.36,3.06.72,4.49,1.08l.84.18c17.33,4.26,29.62,9.47,35.08,15.83a13.49,13.49,0,0,1,2.81,4.91C948.78,689.8,781.51,720.91,691.94,720.85Z" transform="translate(-78.54 -22)"/><path class="cls-22" d="M938.28,649.75a12,12,0,0,1-1.67,3c-9.72,13.73-49.11,31.41-49.11,31.41s-151.37-61.93-274.1-34.41-132.07,43.83-132.07,43.83h-.06c-26.26-10.5-39-23-37.11-35.92,1.14-7.85,20.62-14.74,51.26-20.38,90.05-16.31,276.44-21.22,376.86-6,10.49,1.86,20,3.72,28.41,5.46l.84.18C925.33,642.08,939.42,646.63,938.28,649.75Z" transform="translate(-78.54 -22)"/><path class="cls-23" d="M896.2,635.66c-23.44,22.42-135.85,41.79-199.94,41.73-114.87-.18-184.65-18.29-200.84-40.11C593.2,619.59,804.71,615.28,896.2,635.66Z" transform="translate(-78.54 -22)"/><path class="cls-24" d="M379.41,632.72s20.14-23.5,59.67-42.43,75.86-33.76,81.47-49-108.41-6.24-108.41-6.24l-56.76,24.63S364.28,605.49,379.41,632.72Z" transform="translate(-78.54 -22)"/><path class="cls-25" d="M332.9,273.89s29.42,18.94,10.13,62.78c0,0-137.43,74.85-129.48,156.41,6.64,68.06,196.52,35.11,196.52,35.11l6.82,22.72s-161.31,31.56-217-6.37c0,0-18.93-44.95,28-126S332.9,273.89,332.9,273.89Z" transform="translate(-78.54 -22)"/><path class="cls-26" d="M386,521.88c-17.3,19.57,19.42,41,49.6,44.27,33.88,3.69,94-9.71,90.41-43.83S426.6,476,386,521.88Z" transform="translate(-78.54 -22)"/><path class="cls-27" d="M481.63,227.17c-5.23,31.39,64.63,30,159.79,26.88,114.35-3.78,229.25,94.66,296.11,24,11-11.65-98.46-164.52-230.61-161.1S486.18,199.91,481.63,227.17Z" transform="translate(-78.54 -22)"/><path class="cls-28" d="M546.46,500.64c-6,22.75,41.44,41.11,158.65,39.78C853.59,538.74,879.57,502.91,877,500.5c0,0-61.54,36-177.78,10.53C622.4,494.2,552.82,476.69,546.46,500.64Z" transform="translate(-78.54 -22)"/><path class="cls-29" d="M1019,357.84l-3.42-10.31C1016.28,349.51,1017.54,353.05,1019,357.84Z" transform="translate(-78.54 -22)"/><path class="cls-9" d="M772.36,103c-10.05,2.34,74.29,47,77.69,41.65S800.17,96.5,772.36,103Z" transform="translate(-78.54 -22)"/><path class="cls-9" d="M933.93,136.32c-8.41,4.54-7.74,13.61,9.66,11.33s26.87-15.9,25-18.55S943.36,131.23,933.93,136.32Z" transform="translate(-78.54 -22)"/><path class="cls-9" d="M1087.08,397.94c-4.57-.54-3,39.73,2.66,38S1093.52,398.69,1087.08,397.94Z" transform="translate(-78.54 -22)"/><path class="cls-30" d="M388.33,525.48c-1,5.58,119.89,6.92,122.73-14.45S396.28,482.32,388.33,525.48Z" transform="translate(-78.54 -22)"/><path class="cls-31" d="M418.06,440.33s-4.92-33,.88-77.28,17.7-72.9,24.79-68.88,6,47.39,10.17,90.14c3.25,33.25,9.65,64.48,9.65,64.48S433,478.05,418.06,440.33Z" transform="translate(-78.54 -22)"/><path class="cls-32" d="M1028.79,172.54s-16-19.85-37.86-14.58-23.29,74.09-10.23,75.79,18.61-38.05,28.62-44.3,27.5-3.82,27.5-3.82Z" transform="translate(-78.54 -22)"/><path class="cls-33" d="M354,196.43s8.43-9.55,27.36-6.45,29.84,42,39.53,38.05,2.59-66.85-23-85.36C397.83,142.67,364.83,170.84,354,196.43Z" transform="translate(-78.54 -22)"/><path class="cls-34" d="M328.24,288.09s-67,75.23-62.88,80.6S332.26,295.87,328.24,288.09Z" transform="translate(-78.54 -22)"/><path class="cls-35" d="M560.3,694.17c-8.41,43-26.32,104.1-55.48,150.65-48.25,77.08-116.88,172.61-119,175.63l-.07,0c-33.14,12.41-68.46,4.67-90.45-3a156.08,156.08,0,0,1-21.73-9.22S301.9,914.85,375,816.82c36.7-49.26,79.93-93.36,116-125.05a3.27,3.27,0,0,0,.51-.45c.39-.42.89-.81,1.33-1.21l.74-.65a3,3,0,0,0,.66-.61l.95-.8c.07,0,.14-.09.15-.15l.14-.09c36.51-31.66,64.68-49.71,69.16-46C567.26,644.05,566,664.93,560.3,694.17Z" transform="translate(-78.54 -22)"/><path class="cls-36" d="M560.3,694.17c-8.41,43-26.32,104.1-55.48,150.65-48.25,77.08-116.88,172.61-119,175.63l-.07,0-90.45-3a156.08,156.08,0,0,1-21.73-9.22S301.9,914.85,375,816.82c36.7-49.26,79.93-93.36,116-125.05C470.2,710.45,382.77,792.31,348.71,869.54c-38.77,87.87,53.5,68.83,99.28,19S559.24,694,559.24,694Z" transform="translate(-78.54 -22)"/><path class="cls-9" d="M465.26,784.33c-6.47-3.94,16.47-40,27.77-38.62S470.78,787.7,465.26,784.33Z" transform="translate(-78.54 -22)"/><path class="cls-9" d="M431.07,835c-4.93-4-13,10.29-8.44,13.48S436.66,839.51,431.07,835Z" transform="translate(-78.54 -22)"/><path class="cls-37" d="M288.79,967.8s23.14-46.22,62.22-27.86,11,81.94,11,81.94-52.23,24.29-88.42-13.56C273.59,1008.32,278.22,991.68,288.79,967.8Z" transform="translate(-78.54 -22)"/><path class="cls-38" d="M287.52,956.38s50.19-20.17,73.54,3.25c18.73,18.78,11.51,59.46.41,85.94s-87.29,110.16-121.2,108.77S187.63,1116,201.4,1072C201.4,1072,250,985.85,287.52,956.38Z" transform="translate(-78.54 -22)"/><path class="cls-39" d="M287.52,956.38s-.76,46.35-30.62,78.62-49.24,102-49.24,102-15.67-17.66-6.26-65S287.52,956.38,287.52,956.38Z" transform="translate(-78.54 -22)"/><path class="cls-40" d="M203.91,1063l25.26,16.42s9.57-22.52,22.73-38.51,23.93-47.62,23.93-47.62Z" transform="translate(-78.54 -22)"/><path class="cls-41" d="M279,962.68s-22.82,4.75-56.56,27.9-53.94,50-55.83,57,8.15,19.39,19.95,20.12,51.26-21.5,51.26-21.5S290.41,994.91,279,962.68Z" transform="translate(-78.54 -22)"/><path class="cls-42" d="M256.9,1035s61.55-21.71,108.71.25l-4.14,10.32s-47.23-22.93-109.57-4.71Z" transform="translate(-78.54 -22)"/><path class="cls-9" d="M197.15,1037.58c-3.14-3.36,30.22-26,32.22-20.38S201.57,1042.32,197.15,1037.58Z" transform="translate(-78.54 -22)"/><path class="cls-43" d="M564.57,641.82S516.88,722,522,813.32C522,813.32,583.91,701,564.57,641.82Z" transform="translate(-78.54 -22)"/><path class="cls-44" d="M838.24,686.73c8.41,43,26.32,104.1,55.48,150.65C942,914.46,1010.6,1010,1012.7,1013l.07,0c33.13,12.4,68.46,4.67,90.44-2.95a157.42,157.42,0,0,0,21.74-9.22s-28.31-93.47-101.38-191.5c-36.71-49.26-79.93-93.37-116-125a4.82,4.82,0,0,1-.52-.45c-.38-.42-.88-.81-1.33-1.22-.29-.24-.51-.45-.73-.65a3.06,3.06,0,0,1-.67-.6l-.94-.8c-.07-.05-.14-.09-.15-.15l-.14-.1c-36.52-31.65-64.69-49.71-69.16-46C831.28,636.6,832.52,657.48,838.24,686.73Z" transform="translate(-78.54 -22)"/><path class="cls-45" d="M838.24,686.73c8.41,43,26.32,104.1,55.48,150.65C942,914.46,1010.6,1010,1012.7,1013l.07,0,90.44-2.95a157.42,157.42,0,0,0,21.74-9.22s-28.31-93.47-101.38-191.5c-36.71-49.26-79.93-93.37-116-125C928.33,703,1015.77,784.87,1049.82,862.1c38.78,87.86-53.49,68.82-99.28,19S839.3,686.52,839.3,686.52Z" transform="translate(-78.54 -22)"/><path class="cls-9" d="M933.28,776.89c6.46-3.94-16.47-40-27.77-38.62S927.76,780.26,933.28,776.89Z" transform="translate(-78.54 -22)"/><path class="cls-46" d="M1109.74,960.36s-23.14-46.22-62.21-27.86-11,81.94-11,81.94,52.22,24.29,88.42-13.56C1125,1000.88,1120.32,984.24,1109.74,960.36Z" transform="translate(-78.54 -22)"/><path class="cls-47" d="M1111,948.94s-50.19-20.18-73.55,3.25c-18.72,18.77-11.51,59.45-.4,85.93s87.29,110.17,121.2,108.77,52.63-38.39,38.87-82.33C1197.14,1064.56,1148.57,978.4,1111,948.94Z" transform="translate(-78.54 -22)"/><path class="cls-48" d="M1094.65,944s11.32,50.43,47,83.58c32.2,29.93,49.24,102,49.24,102s15.66-17.66,6.26-65S1094.65,944,1094.65,944Z" transform="translate(-78.54 -22)"/><path class="cls-49" d="M1194.63,1055.5l-24.57,14.59s-9.18-21.63-23.42-36.67c-42.74-45.12-52-89.45-52-89.45l58.07,53.44s14.19,14.94,25,29.18C1182.89,1033.31,1194.63,1055.5,1194.63,1055.5Z" transform="translate(-78.54 -22)"/><path class="cls-50" d="M1094.65,944s11.84-3.55,52.75-4.59c42.12-1.07,64.7,10.63,70.87,14.47s7.29,19.73-.85,28.32-81.83,21.88-81.83,21.88S1108.27,975.35,1094.65,944Z" transform="translate(-78.54 -22)"/><path class="cls-51" d="M1141.64,1027.55s-61.55-21.7-108.71.26l4.14,10.31s47.23-22.93,109.57-4.7Z" transform="translate(-78.54 -22)"/><path class="cls-9" d="M1184.54,949.93c.58-4.57-39.7-3.37-38.06,2.32S1183.73,956.36,1184.54,949.93Z" transform="translate(-78.54 -22)"/><path class="cls-52" d="M834,634.38s47.69,80.21,42.6,171.5C876.57,805.88,814.62,693.53,834,634.38Z" transform="translate(-78.54 -22)"/><path class="cls-53" d="M650,471.56s28.39-35.3,58.29-42,40,30.07,40,30.07S693.2,455,650,471.56Z" transform="translate(-78.54 -22)"/><text class="cls-54" transform="translate(451.14 369.35)">404</text><path class="cls-55" d="M896.69,1049.7c-13.85,81.78-87.05,136.27-192,136.27-91.37,0-168.77-34-189.21-109S502.93,863.37,530.21,777a279.21,279.21,0,0,1,14.68-37.11l.07-.12a254.65,254.65,0,0,1,17.26-30.4.19.19,0,0,0,.06-.12c33.33-50.18,82.14-83,137.29-83,57.44,0,101.38,23.62,131.3,58.57a192.09,192.09,0,0,1,32.61,54.86A544.86,544.86,0,0,1,886,812a4.43,4.43,0,0,0,.12.72C905,891.13,909,976.68,896.69,1049.7Z" transform="translate(-78.54 -22)"/><path class="cls-56" d="M896.69,1049.7c-13.85,81.78-87.05,136.27-192,136.27-91.37,0-168.77-34-189.21-109S502.93,863.37,530.21,777a279.21,279.21,0,0,1,14.68-37.11l.07-.12s-55.28,183.27-11.1,300,250.06,114.27,319.73,36.69c66.3-73.8,35.67-247.18,32.55-263.79C905,891.13,909,976.68,896.69,1049.7Z" transform="translate(-78.54 -22)"/><path class="cls-57" d="M519.39,1001.18C535,891.44,623,817.05,720.82,826.28c105.41,10,162.06,110.56,160.55,196.89S816.75,1176.9,703.66,1176.9,504.77,1103.81,519.39,1001.18Z" transform="translate(-78.54 -22)"/><path class="cls-58" d="M520.37,1010.27C536,900.53,624,826.13,721.81,835.36c105.4,9.95,162.06,110.57,160.55,196.9S817.74,1186,704.65,1186,505.76,1112.9,520.37,1010.27Z" transform="translate(-78.54 -22)"/><path class="cls-59" d="M830.87,684.89c-22.37,35.08-145.46,55.49-216.59,49-61.94-5.66-52.54-22.38-52.06-24.48a.19.19,0,0,0,.06-.12c33.33-50.18,82.14-83,137.29-83C757,626.32,801,649.94,830.87,684.89Z" transform="translate(-78.54 -22)"/><path class="cls-9" d="M787.11,745.69c-5.71,1.89-6,48,0,55.46s15.61,5.14,18.82-5.72S795.77,742.83,787.11,745.69Z" transform="translate(-78.54 -22)"/><path class="cls-60" d="M557.75,940.63c18.58,29.64,95,13.85,181.21,22.26s100.86,36.44,119,30.76S847.46,858.27,718.72,849.46,553.13,933.25,557.75,940.63Z" transform="translate(-78.54 -22)"/><path class="cls-61" d="M584.32,1125.57s25.26,44,119.34,44.36S836,1114.27,836,1114.27s-43.4,28.29-105.48,11.3S607.06,1099,584.32,1125.57Z" transform="translate(-78.54 -22)"/></g></g></svg>