<svg xmlns="http://www.w3.org/2000/svg" xmlns:xlink="http://www.w3.org/1999/xlink" viewBox="0 0 914.73 993.62"><defs><style>.cls-1{isolation:isolate;}.cls-10,.cls-13,.cls-19,.cls-2,.cls-59,.cls-60,.cls-61,.cls-9{opacity:0.3;}.cls-10,.cls-13,.cls-16,.cls-19,.cls-2,.cls-22,.cls-3,.cls-38,.cls-43,.cls-56,.cls-59,.cls-60,.cls-61,.cls-9{mix-blend-mode:multiply;}.cls-2{fill:url(#Áåçûìÿííûé_ãðàäèåíò_153);}.cls-16,.cls-22,.cls-3,.cls-35,.cls-36,.cls-38,.cls-43,.cls-56,.cls-62,.cls-63{opacity:0.5;}.cls-3{fill:url(#Áåçûìÿííûé_ãðàäèåíò_123);}.cls-4,.cls-64,.cls-65,.cls-66{fill:#e5f6ff;}.cls-5{fill:url(#Áåçûìÿííûé_ãðàäèåíò_46);}.cls-6{fill:url(#Áåçûìÿííûé_ãðàäèåíò_28);}.cls-7{fill:url(#Áåçûìÿííûé_ãðàäèåíò_46-2);}.cls-8{fill:url(#Áåçûìÿííûé_ãðàäèåíò_28-2);}.cls-9{fill:url(#Áåçûìÿííûé_ãðàäèåíò_153-2);}.cls-10{fill:url(#Áåçûìÿííûé_ãðàäèåíò_153-3);}.cls-11{fill:url(#Áåçûìÿííûé_ãðàäèåíò_46-3);}.cls-12{fill:url(#Áåçûìÿííûé_ãðàäèåíò_28-3);}.cls-13{fill:url(#Áåçûìÿííûé_ãðàäèåíò_153-4);}.cls-14{fill:url(#Áåçûìÿííûé_ãðàäèåíò_46-4);}.cls-15{fill:url(#Áåçûìÿííûé_ãðàäèåíò_28-4);}.cls-16{fill:url(#Áåçûìÿííûé_ãðàäèåíò_416);}.cls-17{fill:url(#Áåçûìÿííûé_ãðàäèåíò_46-5);}.cls-18{fill:url(#Áåçûìÿííûé_ãðàäèåíò_46-6);}.cls-19{fill:url(#Áåçûìÿííûé_ãðàäèåíò_153-5);}.cls-20{fill:url(#Áåçûìÿííûé_ãðàäèåíò_28-5);}.cls-21{fill:url(#Áåçûìÿííûé_ãðàäèåíò_91);}.cls-22{fill:url(#Áåçûìÿííûé_ãðàäèåíò_416-2);}.cls-23{fill:#fff;}.cls-24,.cls-25,.cls-42,.cls-44{opacity:0.72;}.cls-24,.cls-25,.cls-35,.cls-36,.cls-37,.cls-42,.cls-44,.cls-62,.cls-63{mix-blend-mode:screen;}.cls-24{fill:url(#Áåçûìÿííûé_ãðàäèåíò_143);}.cls-25{fill:url(#Áåçûìÿííûé_ãðàäèåíò_134);}.cls-26{fill:url(#Áåçûìÿííûé_ãðàäèåíò_36);}.cls-27{fill:url(#Áåçûìÿííûé_ãðàäèåíò_264);}.cls-28{fill:url(#Áåçûìÿííûé_ãðàäèåíò_28-6);}.cls-29{fill:url(#Áåçûìÿííûé_ãðàäèåíò_17);}.cls-30{fill:url(#Áåçûìÿííûé_ãðàäèåíò_264-2);}.cls-31{fill:url(#Áåçûìÿííûé_ãðàäèåíò_28-7);}.cls-32{fill:url(#Áåçûìÿííûé_ãðàäèåíò_17-2);}.cls-33{fill:url(#Áåçûìÿííûé_ãðàäèåíò_46-7);}.cls-34{fill:url(#Áåçûìÿííûé_ãðàäèåíò_132);}.cls-35{fill:url(#Áåçûìÿííûé_ãðàäèåíò_54);}.cls-36{fill:url(#Áåçûìÿííûé_ãðàäèåíò_54-2);}.cls-37{opacity:0.2;fill:url(#Áåçûìÿííûé_ãðàäèåíò_126);}.cls-38{fill:url(#Áåçûìÿííûé_ãðàäèåíò_416-3);}.cls-39{fill:url(#Áåçûìÿííûé_ãðàäèåíò_28-8);}.cls-40{fill:url(#Áåçûìÿííûé_ãðàäèåíò_8);}.cls-41{fill:url(#Áåçûìÿííûé_ãðàäèåíò_65);}.cls-42{fill:url(#Áåçûìÿííûé_ãðàäèåíò_134-2);}.cls-43{fill:url(#Áåçûìÿííûé_ãðàäèåíò_416-4);}.cls-44{fill:url(#Áåçûìÿííûé_ãðàäèåíò_143-2);}.cls-45{fill:url(#Áåçûìÿííûé_ãðàäèåíò_46-8);}.cls-46{fill:url(#Áåçûìÿííûé_ãðàäèåíò_91-2);}.cls-47{fill:#2f95cd;}.cls-48{fill:url(#Áåçûìÿííûé_ãðàäèåíò_132-2);}.cls-49{fill:url(#Áåçûìÿííûé_ãðàäèåíò_46-9);}.cls-50{fill:url(#Áåçûìÿííûé_ãðàäèåíò_91-3);}.cls-51{fill:url(#Áåçûìÿííûé_ãðàäèåíò_8-2);}.cls-52{fill:url(#Áåçûìÿííûé_ãðàäèåíò_65-2);}.cls-53{fill:url(#Áåçûìÿííûé_ãðàäèåíò_46-10);}.cls-54{fill:url(#Áåçûìÿííûé_ãðàäèåíò_28-9);}.cls-55{fill:url(#Áåçûìÿííûé_ãðàäèåíò_14);}.cls-56{fill:url(#Áåçûìÿííûé_ãðàäèåíò_416-5);}.cls-57{fill:url(#Áåçûìÿííûé_ãðàäèåíò_46-11);}.cls-58{fill:url(#Áåçûìÿííûé_ãðàäèåíò_46-12);}.cls-59{fill:url(#Áåçûìÿííûé_ãðàäèåíò_153-6);}.cls-60{fill:url(#Áåçûìÿííûé_ãðàäèåíò_153-7);}.cls-61{fill:url(#Áåçûìÿííûé_ãðàäèåíò_153-8);}.cls-62{fill:url(#Áåçûìÿííûé_ãðàäèåíò_11);}.cls-63{fill:url(#Áåçûìÿííûé_ãðàäèåíò_7);}.cls-64{font-size:331.09px;}.cls-64,.cls-65,.cls-66{font-family:Blanka-Regular, Blanka;}.cls-65{font-size:160.21px;}.cls-66{font-size:126px;}</style><linearGradient id="Áåçûìÿííûé_ãðàäèåíò_153" x1="839.4" y1="989.34" x2="839.4" y2="989.14" gradientUnits="userSpaceOnUse"><stop offset="0" stop-color="#9d68c2"/><stop offset="1" stop-color="#ccedff"/></linearGradient><radialGradient id="Áåçûìÿííûé_ãðàäèåíò_123" cx="490.02" cy="1990.19" r="178.81" gradientTransform="translate(-113.4 499.84) scale(1 0.22)" gradientUnits="userSpaceOnUse"><stop offset="0" stop-color="#be9dea"/><stop offset="0.39" stop-color="#e0bff5"/><stop offset="1" stop-color="#fff"/></radialGradient><linearGradient id="Áåçûìÿííûé_ãðàäèåíò_46" x1="407.24" y1="906.6" x2="425.5" y2="761.21" gradientTransform="translate(-27.22 32.45) rotate(-3.49)" gradientUnits="userSpaceOnUse"><stop offset="0" stop-color="#cbc1f7"/><stop offset="1" stop-color="#e8dcf7"/></linearGradient><linearGradient id="Áåçûìÿííûé_ãðàäèåíò_28" x1="420.69" y1="803.8" x2="420.69" y2="754.63" gradientTransform="translate(-27.22 32.45) rotate(-3.49)" gradientUnits="userSpaceOnUse"><stop offset="0" stop-color="#be9dea"/><stop offset="1" stop-color="#9e8cef"/></linearGradient><linearGradient id="Áåçûìÿííûé_ãðàäèåíò_46-2" x1="518.93" y1="913.92" x2="539.69" y2="748.57" xlink:href="#Áåçûìÿííûé_ãðàäèåíò_46"/><linearGradient id="Áåçûìÿííûé_ãðàäèåíò_28-2" x1="536.34" y1="803.94" x2="536.34" y2="754.77" xlink:href="#Áåçûìÿííûé_ãðàäèåíò_28"/><linearGradient id="Áåçûìÿííûé_ãðàäèåíò_153-2" x1="420.69" y1="900.87" x2="420.69" y2="754.63" gradientTransform="translate(-27.22 32.45) rotate(-3.49)" xlink:href="#Áåçûìÿííûé_ãðàäèåíò_153"/><linearGradient id="Áåçûìÿííûé_ãðàäèåíò_153-3" x1="536.34" y1="904.2" x2="536.34" y2="754.77" gradientTransform="translate(-27.22 32.45) rotate(-3.49)" xlink:href="#Áåçûìÿííûé_ãðàäèåíò_153"/><linearGradient id="Áåçûìÿííûé_ãðàäèåíò_46-3" x1="281.51" y1="715.37" x2="308.97" y2="496.77" xlink:href="#Áåçûìÿííûé_ãðàäèåíò_46"/><linearGradient id="Áåçûìÿííûé_ãðàäèåíò_28-3" x1="218.03" y1="715.53" x2="218.03" y2="634.49" xlink:href="#Áåçûìÿííûé_ãðàäèåíò_28"/><linearGradient id="Áåçûìÿííûé_ãðàäèåíò_153-4" x1="292.34" y1="715.53" x2="292.34" y2="506.98" gradientTransform="translate(-27.22 32.45) rotate(-3.49)" xlink:href="#Áåçûìÿííûé_ãðàäèåíò_153"/><linearGradient id="Áåçûìÿííûé_ãðàäèåíò_46-4" x1="173.1" y1="783.1" x2="189.52" y2="652.34" xlink:href="#Áåçûìÿííûé_ãðàäèåíò_46"/><linearGradient id="Áåçûìÿííûé_ãðàäèåíò_28-4" x1="189.14" y1="779.35" x2="189.14" y2="659.49" xlink:href="#Áåçûìÿííûé_ãðàäèåíò_28"/><linearGradient id="Áåçûìÿííûé_ãðàäèåíò_416" x1="188.2" y1="753.07" x2="188.2" y2="675.01" gradientTransform="translate(-27.22 32.45) rotate(-3.49)" gradientUnits="userSpaceOnUse"><stop offset="0" stop-color="#8da4e5"/><stop offset="1" stop-color="#755cbb"/></linearGradient><linearGradient id="Áåçûìÿííûé_ãðàäèåíò_46-5" x1="203.14" y1="756.01" x2="214.8" y2="663.13" xlink:href="#Áåçûìÿííûé_ãðàäèåíò_46"/><linearGradient id="Áåçûìÿííûé_ãðàäèåíò_46-6" x1="461.35" y1="800.43" x2="503.33" y2="466.14" xlink:href="#Áåçûìÿííûé_ãðàäèåíò_46"/><linearGradient id="Áåçûìÿííûé_ãðàäèåíò_153-5" x1="478.41" y1="801" x2="478.41" y2="532.05" gradientTransform="translate(-27.22 32.45) rotate(-3.49)" xlink:href="#Áåçûìÿííûé_ãðàäèåíò_153"/><linearGradient id="Áåçûìÿííûé_ãðàäèåíò_28-5" x1="475.84" y1="795.54" x2="475.84" y2="583.71" xlink:href="#Áåçûìÿííûé_ãðàäèåíò_28"/><radialGradient id="Áåçûìÿííûé_ãðàäèåíò_91" cx="480.08" cy="768.14" r="161.64" gradientTransform="translate(-27.22 32.45) rotate(-3.49)" gradientUnits="userSpaceOnUse"><stop offset="0" stop-color="#45ffcd"/><stop offset="1" stop-color="#22e0ff"/></radialGradient><linearGradient id="Áåçûìÿííûé_ãðàäèåíò_416-2" x1="473.77" y1="529.21" x2="473.77" y2="463.64" xlink:href="#Áåçûìÿííûé_ãðàäèåíò_416"/><linearGradient id="Áåçûìÿííûé_ãðàäèåíò_143" x1="480.98" y1="789.2" x2="480.98" y2="752.51" gradientTransform="translate(-27.22 32.45) rotate(-3.49)" gradientUnits="userSpaceOnUse"><stop offset="0" stop-color="#d4e2ff"/><stop offset="1"/></linearGradient><linearGradient id="Áåçûìÿííûé_ãðàäèåíò_134" x1="390.11" y1="641.66" x2="574.31" y2="641.66" gradientTransform="translate(-27.22 32.45) rotate(-3.49)" gradientUnits="userSpaceOnUse"><stop offset="0"/><stop offset="1" stop-color="#d4e2ff"/></linearGradient><linearGradient id="Áåçûìÿííûé_ãðàäèåíò_36" x1="550.09" y1="547.11" x2="592.86" y2="547.11" gradientTransform="translate(-27.22 32.45) rotate(-3.49)" gradientUnits="userSpaceOnUse"><stop offset="0" stop-color="#8879ea"/><stop offset="1" stop-color="#9e8cef"/></linearGradient><linearGradient id="Áåçûìÿííûé_ãðàäèåíò_264" x1="633.8" y1="289.73" x2="633.8" y2="137.71" gradientTransform="translate(-27.22 32.45) rotate(-3.49)" gradientUnits="userSpaceOnUse"><stop offset="0" stop-color="#b9acf4"/><stop offset="1" stop-color="#e1d1f5"/></linearGradient><linearGradient id="Áåçûìÿííûé_ãðàäèåíò_28-6" x1="644.84" y1="220.34" x2="644.84" y2="137.7" xlink:href="#Áåçûìÿííûé_ãðàäèåíò_28"/><linearGradient id="Áåçûìÿííûé_ãðàäèåíò_17" x1="665.39" y1="297" x2="665.39" y2="147.64" gradientTransform="translate(-27.22 32.45) rotate(-3.49)" xlink:href="#Áåçûìÿííûé_ãðàäèåíò_91"/><linearGradient id="Áåçûìÿííûé_ãðàäèåíò_264-2" x1="749.31" y1="295.65" x2="749.31" y2="143.64" gradientTransform="matrix(-1, 0.06, 0.06, 1, 1037.22, -32.46)" xlink:href="#Áåçûìÿííûé_ãðàäèåíò_264"/><linearGradient id="Áåçûìÿííûé_ãðàäèåíò_28-7" x1="760.35" y1="226.27" x2="760.35" y2="143.63" gradientTransform="matrix(-1, 0.06, 0.06, 1, 1037.22, -32.46)" xlink:href="#Áåçûìÿííûé_ãðàäèåíò_28"/><linearGradient id="Áåçûìÿííûé_ãðàäèåíò_17-2" x1="780.78" y1="306.3" x2="780.78" y2="153.57" gradientTransform="matrix(-1, 0.06, 0.06, 1, 1037.22, -32.46)" xlink:href="#Áåçûìÿííûé_ãðàäèåíò_91"/><linearGradient id="Áåçûìÿííûé_ãðàäèåíò_46-7" x1="461.84" y1="490.46" x2="508.21" y2="121.28" xlink:href="#Áåçûìÿííûé_ãðàäèåíò_46"/><linearGradient id="Áåçûìÿííûé_ãðàäèåíò_132" x1="476.77" y1="465.18" x2="476.77" y2="159.99" gradientTransform="translate(-27.22 32.45) rotate(-3.49)" gradientUnits="userSpaceOnUse"><stop offset="0" stop-color="#0665bd"/><stop offset="1" stop-color="#1a1f77"/></linearGradient><linearGradient id="Áåçûìÿííûé_ãðàäèåíò_54" x1="348.94" y1="228.25" x2="618.16" y2="228.25" gradientTransform="translate(-27.22 32.45) rotate(-3.49)" gradientUnits="userSpaceOnUse"><stop offset="0"/><stop offset="1" stop-color="#6a9bff"/></linearGradient><linearGradient id="Áåçûìÿííûé_ãðàäèåíò_54-2" x1="384.34" y1="443.55" x2="580.08" y2="443.55" xlink:href="#Áåçûìÿííûé_ãðàäèåíò_54"/><linearGradient id="Áåçûìÿííûé_ãðàäèåíò_126" x1="315.6" y1="392.88" x2="315.6" y2="293.04" gradientTransform="translate(4.25 23.13) rotate(0.43)" gradientUnits="userSpaceOnUse"><stop offset="0"/><stop offset="1" stop-color="#00e3ff"/></linearGradient><linearGradient id="Áåçûìÿííûé_ãðàäèåíò_416-3" x1="329.2" y1="457.45" x2="329.2" y2="410.65" xlink:href="#Áåçûìÿííûé_ãðàäèåíò_416"/><linearGradient id="Áåçûìÿííûé_ãðàäèåíò_28-8" x1="243.1" y1="431.6" x2="265.25" y2="255.23" xlink:href="#Áåçûìÿííûé_ãðàäèåíò_28"/><linearGradient id="Áåçûìÿííûé_ãðàäèåíò_8" x1="315.52" y1="387.43" x2="315.52" y2="337.71" gradientTransform="translate(82.34 8.95) rotate(9.76)" gradientUnits="userSpaceOnUse"><stop offset="0" stop-color="#dd1a8f"/><stop offset="1" stop-color="#fe117e"/></linearGradient><linearGradient id="Áåçûìÿííûé_ãðàäèåíò_65" x1="332.18" y1="408.57" x2="332.18" y2="387.46" gradientTransform="translate(-27.22 32.45) rotate(-3.49)" gradientUnits="userSpaceOnUse"><stop offset="0" stop-color="#d93de3"/><stop offset="1" stop-color="#ff6dba"/></linearGradient><linearGradient id="Áåçûìÿííûé_ãðàäèåíò_134-2" x1="643.11" y1="184.93" x2="681.97" y2="184.93" xlink:href="#Áåçûìÿííûé_ãðàäèåíò_134"/><linearGradient id="Áåçûìÿííûé_ãðàäèåíò_416-4" x1="553.69" y1="475.48" x2="553.69" y2="384.62" xlink:href="#Áåçûìÿííûé_ãðàäèåíò_416"/><linearGradient id="Áåçûìÿííûé_ãðàäèåíò_143-2" x1="266.9" y1="182.23" x2="309.73" y2="182.23" xlink:href="#Áåçûìÿííûé_ãðàäèåíò_143"/><linearGradient id="Áåçûìÿííûé_ãðàäèåíò_46-8" x1="227.31" y1="330.75" x2="227.31" y2="281.4" xlink:href="#Áåçûìÿííûé_ãðàäèåíò_46"/><radialGradient id="Áåçûìÿííûé_ãðàäèåíò_91-2" cx="389.45" cy="299.12" r="51.74" xlink:href="#Áåçûìÿííûé_ãðàäèåíò_91"/><linearGradient id="Áåçûìÿííûé_ãðàäèåíò_132-2" x1="596.24" y1="439.83" x2="596.24" y2="199.94" xlink:href="#Áåçûìÿííûé_ãðàäèåíò_132"/><linearGradient id="Áåçûìÿííûé_ãðàäèåíò_46-9" x1="659.57" y1="402.07" x2="684.09" y2="206.89" xlink:href="#Áåçûìÿííûé_ãðàäèåíò_46"/><radialGradient id="Áåçûìÿííûé_ãðàäèåíò_91-3" cx="605.61" cy="334.94" r="75.96" xlink:href="#Áåçûìÿííûé_ãðàäèåíò_91"/><linearGradient id="Áåçûìÿííûé_ãðàäèåíò_8-2" x1="585.6" y1="456.99" x2="645.04" y2="204.51" gradientTransform="translate(-27.22 32.45) rotate(-3.49)" xlink:href="#Áåçûìÿííûé_ãðàäèåíò_8"/><linearGradient id="Áåçûìÿííûé_ãðàäèåíò_65-2" x1="585.6" y1="447.92" x2="645.04" y2="195.44" xlink:href="#Áåçûìÿííûé_ãðàäèåíò_65"/><linearGradient id="Áåçûìÿííûé_ãðàäèåíò_46-10" x1="649.57" y1="599.3" x2="664.86" y2="477.52" xlink:href="#Áåçûìÿííûé_ãðàäèåíò_46"/><linearGradient id="Áåçûìÿííûé_ãðàäèåíò_28-9" x1="745.12" y1="533.24" x2="745.12" y2="487.68" xlink:href="#Áåçûìÿííûé_ãðàäèåíò_28"/><linearGradient id="Áåçûìÿííûé_ãðàäèåíò_14" x1="732.06" y1="520.36" x2="739.95" y2="409.2" gradientTransform="translate(-27.22 32.45) rotate(-3.49)" gradientUnits="userSpaceOnUse"><stop offset="0" stop-color="#a242ea"/><stop offset="1" stop-color="#fe117e"/></linearGradient><linearGradient id="Áåçûìÿííûé_ãðàäèåíò_416-5" x1="726.24" y1="515.64" x2="726.24" y2="410.75" xlink:href="#Áåçûìÿííûé_ãðàäèåíò_416"/><linearGradient id="Áåçûìÿííûé_ãðàäèåíò_46-11" x1="690.76" y1="477.18" x2="694.39" y2="448.29" xlink:href="#Áåçûìÿííûé_ãðàäèåíò_46"/><linearGradient id="Áåçûìÿííûé_ãðàäèåíò_46-12" x1="742.39" y1="468.89" x2="751.81" y2="393.89" xlink:href="#Áåçûìÿííûé_ãðàäèåíò_46"/><linearGradient id="Áåçûìÿííûé_ãðàäèåíò_153-6" x1="660.57" y1="600.27" x2="660.57" y2="485.45" gradientTransform="translate(-27.22 32.45) rotate(-3.49)" xlink:href="#Áåçûìÿííûé_ãðàäèåíò_153"/><linearGradient id="Áåçûìÿííûé_ãðàäèåíò_153-7" x1="692.74" y1="477.28" x2="692.74" y2="447.33" gradientTransform="translate(-27.22 32.45) rotate(-3.49)" xlink:href="#Áåçûìÿííûé_ãðàäèåíò_153"/><linearGradient id="Áåçûìÿííûé_ãðàäèåíò_153-8" x1="746.08" y1="472.7" x2="746.08" y2="410.75" gradientTransform="translate(-27.22 32.45) rotate(-3.49)" xlink:href="#Áåçûìÿííûé_ãðàäèåíò_153"/><radialGradient id="Áåçûìÿííûé_ãðàäèåíò_11" cx="597.82" cy="324.63" r="105.78" gradientTransform="translate(-2.67 0.82) scale(1.02 0.98)" gradientUnits="userSpaceOnUse"><stop offset="0"/><stop offset="0.23" stop-color="#010303"/><stop offset="0.37" stop-color="#050b0b"/><stop offset="0.48" stop-color="#0b1919"/><stop offset="0.58" stop-color="#132d2d"/><stop offset="0.67" stop-color="#1f4848"/><stop offset="0.75" stop-color="#2c6868"/><stop offset="0.83" stop-color="#3d8e8e"/><stop offset="0.91" stop-color="#50baba"/><stop offset="0.97" stop-color="#65ebeb"/><stop offset="1" stop-color="#6dffff"/></radialGradient><linearGradient id="Áåçûìÿííûé_ãðàäèåíò_7" x1="519.68" y1="273.22" x2="710.96" y2="273.22" gradientTransform="translate(-27.22 32.45) rotate(-3.49)" gradientUnits="userSpaceOnUse"><stop offset="0" stop-color="#6a9bff"/><stop offset="1"/></linearGradient></defs><title>not-search</title><g class="cls-1"><g id="Layer_1" data-name="Layer 1"><path class="cls-2" d="M839.26,989.14a1.43,1.43,0,0,0,.27.2A.6.6,0,0,1,839.26,989.14Z" transform="translate(-113.4 4.29)"/><ellipse class="cls-3" cx="376.61" cy="942.66" rx="178.8" ry="39.79"/><path class="cls-4" d="M191.52,783.14C243.87,877.69,690.8,836.22,799,753.7S617.85,50.78,315.42,82.54C94.62,105.73,57.18,540.46,191.52,783.14Z" transform="translate(-113.4 4.29)"/><path class="cls-4" d="M849.82,698c-19.37-2-37.53-103-16-124.09s70.84,21,72.92,55.14S883.44,701.35,849.82,698Z" transform="translate(-113.4 4.29)"/><path class="cls-4" d="M265.76,57.76c5.62,14-39,47.45-56,36.61s-9.68-47.88,4.56-55.95S257.62,37.45,265.76,57.76Z" transform="translate(-113.4 4.29)"/><path class="cls-5" d="M499.3,805v.13c.17,3.46,3.29,70.42-8.46,98.24-3,7.25-7.09,11.85-12.49,12-19,.37-67-77.12-86.82-121.55-4.53-10.18-7.59-18.6-8.44-24-.64-3.91-.16-6.18,1.76-6.34a89,89,0,0,1,11.89-.2c.53,0,1.06.07,1.59.12,47.56,2.81,95.63,37.61,100.55,41.3C499.17,805,499.3,805,499.3,805Z" transform="translate(-113.4 4.29)"/><path class="cls-6" d="M499.3,805c-62.54,9.3-106.4-21.41-116.2-35.17-2.54-3.49-2.78-5.89-.51-6.21a67.67,67.67,0,0,1,14.16-.33c.53,0,1.06.07,1.59.12,42,3.76,95.2,37.85,100.55,41.3C499.17,805,499.3,805,499.3,805Z" transform="translate(-113.4 4.29)"/><path class="cls-7" d="M610.42,756.09c-.2,6.08-2.69,16.38-6.71,28.83-15.1,47-51.74,125.3-70.21,127.22-4.49.45-8.44-2.3-11.9-7.27-16.93-24.09-22.29-99.7-22.29-99.7s.13-.1.38-.33c4.48-4.27,48.08-44.84,95-53.28.39-.07.83-.14,1.3-.25a90.55,90.55,0,0,1,11.87-1.25C609.79,750,610.58,752.18,610.42,756.09Z" transform="translate(-113.4 4.29)"/><path class="cls-8" d="M610.42,756.09c-7.88,14.76-47.76,50.75-111.11,49.08,0,0,.13-.1.38-.33,4.88-4.12,53.72-44.52,95-53.28.39-.07.83-.14,1.3-.25a66.73,66.73,0,0,1,14.11-1.39C612.42,750,612.48,752.32,610.42,756.09Z" transform="translate(-113.4 4.29)"/><path class="cls-9" d="M499.3,805v.13c.17,3.46,3.29,70.42-8.46,98.24,0,0-8-70.49-27.82-85.36s-71.49-24.23-71.49-24.23c-4.53-10.18-7.59-18.6-8.44-24-2.54-3.49-2.78-5.89-.51-6.21a67.67,67.67,0,0,1,14.16-.33c.53,0,1.06.07,1.59.12,47.56,2.81,95.63,37.61,100.55,41.3C499.17,805,499.3,805,499.3,805Z" transform="translate(-113.4 4.29)"/><path class="cls-10" d="M610.42,756.09c-.2,6.08-2.69,16.38-6.71,28.83-8.77,2.42-55.1,16.19-70,46-12.45,24.87-12.75,58.71-12.13,74-16.93-24.09-22.29-99.7-22.29-99.7s.13-.1.38-.33c4.48-4.27,48.08-44.84,95-53.28.39-.07.83-.14,1.3-.25a66.73,66.73,0,0,1,14.11-1.39C612.42,750,612.48,752.32,610.42,756.09Z" transform="translate(-113.4 4.29)"/><path class="cls-11" d="M395.18,564.73A247.19,247.19,0,0,1,389.41,609a179,179,0,0,1-11.52,16.34c-19.18,24.71-62.54,71.5-132.25,97.93-1.67.72-3.35,1.3-5.06,1.93-11.27,4-34.41-29.08-25.3-59a42.53,42.53,0,0,1,3.48-8.43c4.07-7.54,12.43-18,23.65-30,29.23-31.29,78-72.66,121.81-98.25h0a254.15,254.15,0,0,1,28.92-14.81A287.38,287.38,0,0,1,395.18,564.73Z" transform="translate(-113.4 4.29)"/><path class="cls-12" d="M245.64,723.31a25.18,25.18,0,0,1-3.92,4.19c-16.29,13.73-41.77,7.91-31.17-45.84a47.42,47.42,0,0,1,4.73-15.44c3.3-6.35,8.9-12.53,18.21-13.94C256.73,648.76,262.58,701.46,245.64,723.31Z" transform="translate(-113.4 4.29)"/><path class="cls-13" d="M395.18,564.73l-17.29,60.65c-19.18,24.71-62.54,71.5-132.25,97.93a25.18,25.18,0,0,1-3.92,4.19c-16.29,13.73-41.77,7.91-31.17-45.84a47.42,47.42,0,0,1,4.73-15.44,42.53,42.53,0,0,1,3.48-8.43c4.07-7.54,12.43-18,23.65-30-.78,1.63-6.13,14.12,7.07,18,14.12,4.11,86-17.71,116-54s27-68.23-1.2-62.21a254.15,254.15,0,0,1,28.92-14.81A287.38,287.38,0,0,1,395.18,564.73Z" transform="translate(-113.4 4.29)"/><path class="cls-14" d="M230.19,673.89c-18.24-2.17-70.53,40.8-83.09,121.71,0,0,1.59,6.34,17.86,5.93S207.22,769.7,225,751.07,260.58,677.51,230.19,673.89Z" transform="translate(-113.4 4.29)"/><path class="cls-15" d="M165,801.53s25.77-44,30.82-54.83c0,0,7.57-53.13,23.85-64.64,15.91-11.23,22.6-.15,27,12.7S228.2,788.32,165,801.53Z" transform="translate(-113.4 4.29)"/><path class="cls-16" d="M194.93,755.31s7.75,15.13,16.52,17.06c0,0-10.36-50.5.73-78.25C212.18,694.12,197.26,720.29,194.93,755.31Z" transform="translate(-113.4 4.29)"/><path class="cls-17" d="M218.82,685.34s16.76-13.31,27.77,9.42c0,0-1,38.37-19.93,78.14,0,0-10.72,3.78-15.21-.53C201.48,762.8,200.4,699.92,218.82,685.34Z" transform="translate(-113.4 4.29)"/><path class="cls-18" d="M610.1,713.78c-5.34,49.71-47.38,85.19-110.54,89-55,3.35-102.8-14.3-117.85-58.67s-15.37-128-2.13-181a168.06,168.06,0,0,1,7.48-22.87l0-.07a153.65,153.65,0,0,1,9.27-18.92.09.09,0,0,0,0-.08c18.22-31.41,46.38-52.93,79.56-55,34.56-2.11,61.87,10.49,81.15,30.43a115.49,115.49,0,0,1,21.64,31.81A327.83,327.83,0,0,1,595,571.15a2.69,2.69,0,0,0,.1.42C609.29,618.06,614.85,669.39,610.1,713.78Z" transform="translate(-113.4 4.29)"/><path class="cls-19" d="M610.1,713.78c-5.34,49.71-47.38,85.19-110.54,89-55,3.35-102.8-14.3-117.85-58.67s-15.37-128-2.13-181a168.06,168.06,0,0,1,7.48-22.87l0-.07s-26.54,112.3,4.33,180.91,154.65,59.58,193.72,10.35c37.19-46.84,12.4-150,9.91-159.92C609.29,618.06,614.85,669.39,610.1,713.78Z" transform="translate(-113.4 4.29)"/><path class="cls-20" d="M381.29,698.43c5.38-66.6,55.62-114.59,114.79-112.63,63.78,2.12,101.57,60.58,103.82,112.58s-33.23,94.87-101.28,99S376.27,760.72,381.29,698.43Z" transform="translate(-113.4 4.29)"/><path class="cls-21" d="M382.22,703.86c5.37-66.6,55.61-114.59,114.79-112.63,63.78,2.12,101.56,60.58,103.82,112.58s-33.24,94.87-101.28,99S377.2,766.15,382.22,703.86Z" transform="translate(-113.4 4.29)"/><path class="cls-22" d="M557.1,496.7c-12.17,21.92-85.48,38.72-128.52,37.42-37.47-1.13-32.43-11.53-32.22-12.81a.09.09,0,0,0,0-.08c18.22-31.41,46.38-52.93,79.56-55C510.51,464.16,537.82,476.76,557.1,496.7Z" transform="translate(-113.4 4.29)"/><path class="cls-23" d="M533,534.88c-3.37,1.35-1.85,29.12,2,33.37s9.58,2.52,11.11-4.13S538.11,532.84,533,534.88Z" transform="translate(-113.4 4.29)"/><path class="cls-23" d="M541.86,575.26c-2.83.86-2.75,7.76-1.27,10.09s6.43,1.51,7.06-1.47S544.71,574.39,541.86,575.26Z" transform="translate(-113.4 4.29)"/><path class="cls-24" d="M423.57,768.84s16.81,25.54,73.43,22.31,77.59-38.35,77.59-38.35-25.08,18.62-63.05,10.68S436.28,752,423.57,768.84Z" transform="translate(-113.4 4.29)"/><path class="cls-25" d="M402.16,660.59c12.26,17.15,57.69,4.85,109.84,6.75s62,18.22,72.75,14.14-11.3-81.08-89.09-81.65S399.1,656.32,402.16,660.59Z" transform="translate(-113.4 4.29)"/><path class="cls-26" d="M561.51,501.55s-4.41-4.85-9.44-7.08c0,0,18.63,71,48.86,98.59C600.93,593.06,584.45,526.09,561.51,501.55Z" transform="translate(-113.4 4.29)"/><path class="cls-27" d="M572.24,161.68s25.93-25.28,59.17-31.43c0,0,10.56,4.39,24.66,40.58s-3.33,110.42-3.33,110.42Z" transform="translate(-113.4 4.29)"/><path class="cls-28" d="M631.41,130.25S606.08,161,608.93,207.77l10.88,6,26.68-65.05S635.15,129.47,631.41,130.25Z" transform="translate(-113.4 4.29)"/><path class="cls-29" d="M618.63,210.61S609,171.07,633.5,140.07c0,0,30.59,12.2,46.06,63.4s-14.65,84.32-14.65,84.32Z" transform="translate(-113.4 4.29)"/><path class="cls-23" d="M599.21,143.9c-4.89,3-4.16,8.47,6.23,6.46s15.58-10.55,14.35-12.08S604.7,140.49,599.21,143.9Z" transform="translate(-113.4 4.29)"/><path class="cls-30" d="M343,181.6s-28.81-21.94-62.55-24c0,0-9.95,5.64-19.55,43.27s16.72,109.2,16.72,109.2Z" transform="translate(-113.4 4.29)"/><path class="cls-31" d="M280.43,157.6s28.88,27.39,31.73,74.21l-10.07,7.25L267.7,177.73S276.62,157.28,280.43,157.6Z" transform="translate(-113.4 4.29)"/><path class="cls-32" d="M302.88,235.81s4.77-40.43-23.33-68.21c0,0-28.88,15.82-38,68.52S270,321.2,270,321.2Z" transform="translate(-113.4 4.29)"/><path class="cls-23" d="M314.05,167.23c5.23,2.42,5.16,7.9-5.4,7.17s-16.75-8.58-15.71-10.25S308.19,164.51,314.05,167.23Z" transform="translate(-113.4 4.29)"/><path class="cls-33" d="M281.51,439.18c47.82,94.16,359.76,44.87,392.41-36.87,35.71-89.39-71.68-298.39-221.43-279.19C326,139.33,220,318.15,281.51,439.18Z" transform="translate(-113.4 4.29)"/><path class="cls-34" d="M298,424.48c44.94,76.88,318,47.08,353.6-28.29,30.2-64-61.54-247.66-198.74-232.55S254.87,350.7,298,424.48Z" transform="translate(-113.4 4.29)"/><path class="cls-23" d="M497.9,138.39c-2.66,3.59,31.5,16,35.82,13.71S506.77,126.38,497.9,138.39Z" transform="translate(-113.4 4.29)"/><path class="cls-35" d="M335.86,250.52c-2,19.08,33.67,14.75,90.81,9.36,68.66-6.47,141.41,48.54,179,3.58,6.21-7.41-65.28-95.38-144.66-88.47S337.6,234,335.86,250.52Z" transform="translate(-113.4 4.29)"/><path class="cls-36" d="M383.34,445.51c-2.8,13.91,26.68,25.86,96.91,18.12,84.91-9.37,101.9-28.31,97.42-33-2.7-2.81-27.23,14.81-98.11,3.74C432.76,427.06,386.28,430.87,383.34,445.51Z" transform="translate(-113.4 4.29)"/><path class="cls-37" d="M304.63,407.59s-4.16-19.67-2.3-46.54,8-44.51,12.38-42.35,5.35,28.29,9.43,53.86c3.18,19.89,8.17,38.44,8.17,38.44S315,429.73,304.63,407.59Z" transform="translate(-113.4 4.29)"/><path class="cls-38" d="M314.34,469.92s4-4.84,25.87-19.58c14.7-9.89,30-21.46,32.08-25.48,2.82-9.36-65.46.22-65.46.22l-25.32,14.1S293.13,459,314.34,469.92Z" transform="translate(-113.4 4.29)"/><path class="cls-39" d="M249.57,270.83s18.4,10.32,8.4,37.41c0,0-79.94,50.08-72.16,98.86C192.3,447.81,305.34,421,305.34,421l4.93,13.42s-95.9,24.91-130.78,4.13c0,0-13-26.35,12.24-76.83S249.57,270.83,249.57,270.83Z" transform="translate(-113.4 4.29)"/><path class="cls-40" d="M290.64,418.1c-9.69,12.41,13.19,23.95,31.48,24.82,20.51,1,56.22-9.3,52.78-29.69S313.37,389,290.64,418.1Z" transform="translate(-113.4 4.29)"/><path class="cls-41" d="M292.15,420.18c-.41,3.39,72.39-.24,73.32-13.2S295.35,393.92,292.15,420.18Z" transform="translate(-113.4 4.29)"/><path class="cls-42" d="M659.07,162.05s-10.37-11.36-23.32-7.38-11.29,45.43-3.37,46,9.8-23.58,15.59-27.7,16.41-3.31,16.41-3.31Z" transform="translate(-113.4 4.29)"/><path class="cls-43" d="M557.53,473.16s-47.74-42.63-64.9-87.07l117,67.2S572.22,469,557.53,473.16Z" transform="translate(-113.4 4.29)"/><path class="cls-44" d="M250.69,204.68s4.72-6.06,16.22-4.89,19.5,24.15,25.18,21.45-.89-40.32-17-50.52C275.11,170.72,256.29,188.89,250.69,204.68Z" transform="translate(-113.4 4.29)"/><path class="cls-45" d="M235.32,298.36s-36.74,48.34-34,51.37S238.09,302.85,235.32,298.36Z" transform="translate(-113.4 4.29)"/><path class="cls-46" d="M342,307.49s36.06-7.63,72.18,1c5.39,1.28-12.12-16.85-37.2-18.79S339.84,299,342,307.49Z" transform="translate(-113.4 4.29)"/><path class="cls-47" d="M433.78,379.32c5.07-19.18,28.75-19.8,34.61-3.22,6.23,17.63-13.26,39.54-22.85,36.85S430,393.5,433.78,379.32Z" transform="translate(-113.4 4.29)"/><path class="cls-48" d="M494.54,352.19c-26-60.26,27.56-142.85,116.66-158.36,0,0,88.42,49.56,77.95,201.94C689.15,395.77,561.76,508.3,494.54,352.19Z" transform="translate(-113.4 4.29)"/><path class="cls-49" d="M611.2,193.83s30.34-1.59,67.79,25.92,59.61,113.49,10.16,176C689.15,395.77,705.49,272.83,611.2,193.83Z" transform="translate(-113.4 4.29)"/><path class="cls-50" d="M545,328.93c4.29,28,87.83,20.21,99.8-6.09,9.61-21.11-26-85.84-59-79.06S538.92,289.56,545,328.93Z" transform="translate(-113.4 4.29)"/><path class="cls-51" d="M599.2,195.72A129.66,129.66,0,1,0,736.51,317.24,129.65,129.65,0,0,0,599.2,195.72ZM613.67,432.9A108,108,0,1,1,714.86,318.56,108,108,0,0,1,613.67,432.9Z" transform="translate(-113.4 4.29)"/><path class="cls-52" d="M598.65,186.66A129.66,129.66,0,1,0,736,308.19,129.66,129.66,0,0,0,598.65,186.66Zm14.46,237.18A108,108,0,1,1,714.3,309.51,108,108,0,0,1,613.11,423.84Z" transform="translate(-113.4 4.29)"/><path class="cls-53" d="M762.86,508.09s-24.78,54.65-59.37,74.46-90,1.89-108.45-11c-25.1-17.58-37.89-82.68-27.79-83.3,9.15-.55,18.54,5.86,47.82,7.76h.09c7.9.53,17.22.71,28.39.34,26.48-.91,50.56-8.66,66.11-15.06a173.77,173.77,0,0,0,18.15-8.53C748.89,471.34,762.86,508.09,762.86,508.09Z" transform="translate(-113.4 4.29)"/><path class="cls-54" d="M724.41,475.2s-.2,39.1,15.1,43.54,23.34-10.65,23.34-10.65l6.5-16.28Z" transform="translate(-113.4 4.29)"/><path class="cls-55" d="M675.45,430.76s57,55.33,94.9,76.87c0,0,22.5-4.08,25.56-26.77l-83.43-85.25Z" transform="translate(-113.4 4.29)"/><path class="cls-56" d="M772.8,457.24s-52.23-35.22-61.53-37.7c0,0-6.65,9.66-9.15,20.61s57.59,60.91,57.59,60.91-55.46-39.64-81.4-67.56c0,0,25.54-20.58,37.12-34.82Z" transform="translate(-113.4 4.29)"/><path class="cls-57" d="M708,461.39c-.51,3.15-21.94,10.52-28.59-.63a26.63,26.63,0,0,1-1.7-3.37c-4-9.72.32-17.89,4.69-20.44l.09.08.32.29C686.07,440,708.42,458.46,708,461.39Z" transform="translate(-113.4 4.29)"/><path class="cls-58" d="M772.8,457.24l-11.38-11.61s-36.83-15.58-46-46.95a.12.12,0,0,1,0-.09s7.28-17.48,24.92-19.09c7-.65,13.94,8.24,19.56,20.46h0C768.42,418.5,774.05,444.69,772.8,457.24Z" transform="translate(-113.4 4.29)"/><path class="cls-59" d="M762.86,508.09s-24.78,54.65-59.37,74.46-90,1.89-108.45-11c-25.1-17.58-37.89-82.68-27.79-83.3,9.15-.55,18.54,5.86,47.82,7.76-1.8,0-26.67-.22-30.62,7.05-4.11,7.54,50.31,77.44,98.7,54.11s35.05-76.23,26.6-75.89h-.09a173.77,173.77,0,0,0,18.15-8.53C748.89,471.34,762.86,508.09,762.86,508.09Z" transform="translate(-113.4 4.29)"/><path class="cls-60" d="M708,461.39c-.51,3.15-21.94,10.52-28.59-.63a26.63,26.63,0,0,1-1.7-3.37c5.14,5.71,12.47,4.21,14.3-2.54,1.75-6.52-7.19-15.59-9.2-17.53C686.07,440,708.42,458.46,708,461.39Z" transform="translate(-113.4 4.29)"/><path class="cls-61" d="M772.8,457.24l-11.38-11.61s-36.83-15.58-46-46.95c1,1.65,19.81,27.34,38.34,28.69,13.65,1,6.64-25.64,6.09-27.41h0C768.42,418.5,774.05,444.69,772.8,457.24Z" transform="translate(-113.4 4.29)"/><path class="cls-23" d="M213.4,714.17s-5.76,9.31-3.5,22.7A32.74,32.74,0,0,0,213.4,714.17Z" transform="translate(-113.4 4.29)"/><path class="cls-23" d="M169.11,774.39A28.92,28.92,0,0,1,178,756.5S174.75,771.41,169.11,774.39Z" transform="translate(-113.4 4.29)"/><path class="cls-23" d="M268.45,615.8c-1.51-2.23,23.44-29.2,30.93-30.56s-2.44,2.77-8.19,12.59S271.19,619.84,268.45,615.8Z" transform="translate(-113.4 4.29)"/><path class="cls-23" d="M306.17,579.34c-2.93-3,11.49-9.44,11.49-9.44S309.28,582.48,306.17,579.34Z" transform="translate(-113.4 4.29)"/><path class="cls-23" d="M618.61,514c-.65,6.14,30.3,4.25,29.37-1.79S619.27,507.82,618.61,514Z" transform="translate(-113.4 4.29)"/><path class="cls-23" d="M434.63,839.53c-4,2.17,4.88,22.55,10.53,21.77S439.29,837,434.63,839.53Z" transform="translate(-113.4 4.29)"/><ellipse class="cls-62" cx="606.75" cy="320.03" rx="107.83" ry="104.01" transform="translate(-131.76 41.81) rotate(-3.49)"/><path class="cls-63" d="M509.77,300.26c2.1,19.08,33.59,24.05,92.22-9.44,46.55-26.58,94.48-2.39,98-10s-50.49-65.61-104.64-55.41S507.9,283.24,509.77,300.26Z" transform="translate(-113.4 4.29)"/><text class="cls-64" transform="translate(582.72 176.75) rotate(53.62)">?</text><text class="cls-65" transform="matrix(0.32, 0.98, -0.95, 0.31, 644.94, 261.2)">?</text><text class="cls-66" transform="translate(563.42 171.29) rotate(36.42)">?</text></g></g></svg>